<mxfile host="65bd71144e">
    <diagram id="0X041AxEWFSjHJA7dF0B" name="Page-1">
        <mxGraphModel dx="886" dy="596" grid="1" gridSize="10" guides="1" tooltips="1" connect="1" arrows="1" fold="1" page="1" pageScale="1" pageWidth="850" pageHeight="1100" math="0" shadow="0">
            <root>
                <mxCell id="0"/>
                <mxCell id="1" parent="0"/>
                <mxCell id="3" value="InÃ­cio&amp;nbsp;" style="ellipse;whiteSpace=wrap;html=1;fontSize=24;fillColor=#fad7ac;strokeColor=#b46504;" vertex="1" parent="1">
                    <mxGeometry x="340" y="60" width="120" height="80" as="geometry"/>
                </mxCell>
                <mxCell id="4" value="Junta ambos chats&amp;nbsp;" style="rounded=1;whiteSpace=wrap;html=1;fontSize=24;fillColor=#fad7ac;strokeColor=#b46504;" vertex="1" parent="1">
                    <mxGeometry x="100" y="200" width="230" height="60" as="geometry"/>
                </mxCell>
                <mxCell id="5" value="Config&amp;nbsp;&lt;span style=&quot;color: rgb(248, 248, 248); background-color: rgb(31, 31, 31); font-family: Consolas, &amp;quot;Courier New&amp;quot;, monospace; font-size: 14px;&quot;&gt;socket&lt;/span&gt;" style="rounded=1;whiteSpace=wrap;html=1;fontSize=24;fillColor=#fad7ac;strokeColor=#b46504;" vertex="1" parent="1">
                    <mxGeometry x="450" y="200" width="230" height="60" as="geometry"/>
                </mxCell>
            </root>
        </mxGraphModel>
    </diagram>
</mxfile>